HIERARCHY
ROOT hip
{
  OFFSET 0 0 0
  CHANNELS 6 Xposition Yposition Zposition Zrotation Yrotation Xrotation
  JOINT abdomen
  {
    OFFSET 0 20.6881 -0.73152
    CHANNELS 3 Zrotation Xrotation Yrotation
    JOINT chest
    {
      OFFSET 0 11.7043 -0.48768
      CHANNELS 3 Zrotation Xrotation Yrotation
      JOINT neck
      {
        OFFSET 0 22.1894 -2.19456
        CHANNELS 3 Zrotation Xrotation Yrotation
        JOINT head
        {
          OFFSET -0.24384 7.07133 1.2192
          CHANNELS 3 Zrotation Xrotation Yrotation
          JOINT leftEye
          {
            OFFSET 4.14528 8.04674 8.04672
            CHANNELS 3 Zrotation Xrotation Yrotation
            End Site
            {
              OFFSET 1 0 0
            }
          }
          JOINT rightEye
          {
            OFFSET -3.6576 8.04674 8.04672
            CHANNELS 3 Zrotation Xrotation Yrotation
            End Site
            {
              OFFSET 1 0 0
            }
          }
        }
      }
      JOINT rCollar
      {
        OFFSET -2.68224 19.2634 -4.8768
        CHANNELS 3 Zrotation Xrotation Yrotation
        JOINT rShldr
        {
          OFFSET -8.77824 -1.95073 1.46304
          CHANNELS 3 Zrotation Xrotation Yrotation
          JOINT rForeArm
          {
            OFFSET -28.1742 -1.7115 0.48768
            CHANNELS 3 Zrotation Xrotation Yrotation
            JOINT rHand
            {
              OFFSET -22.5879 0.773209 7.07136
              CHANNELS 3 Zrotation Xrotation Yrotation
              JOINT rThumb1
              {
                OFFSET -1.2192 -0.487915 3.41376
                CHANNELS 3 Zrotation Xrotation Yrotation
                JOINT rThumb2
                {
                  OFFSET -3.37035 -0.52449 3.41376
                  CHANNELS 3 Zrotation Xrotation Yrotation
                  End Site
                  {
                    OFFSET -1.78271 -1.18214 1.43049
                  }
                }
              }
              JOINT rIndex1
              {
                OFFSET -7.75947 0.938293 5.60832
                CHANNELS 3 Zrotation Xrotation Yrotation
                JOINT rIndex2
                {
                  OFFSET -2.54057 -0.884171 1.56538
                  CHANNELS 3 Zrotation Xrotation Yrotation
                  End Site
                  {
                    OFFSET -1.62519 -0.234802 1.16502
                  }
                }
              }
              JOINT rMid1
              {
                OFFSET -8.24714 1.18213 3.41376
                CHANNELS 3 Zrotation Xrotation Yrotation
                JOINT rMid2
                {
                  OFFSET -3.10165 -0.590103 1.0647
                  CHANNELS 3 Zrotation Xrotation Yrotation
                  End Site
                  {
                    OFFSET -2.48547 -0.328903 0.83742
                  }
                }
              }
              JOINT rRing1
              {
                OFFSET -8.82822 0.546677 1.51678
                CHANNELS 3 Zrotation Xrotation Yrotation
                JOINT rRing2
                {
                  OFFSET -2.60934 -0.819778 -0.0198488
                  CHANNELS 3 Zrotation Xrotation Yrotation
                  End Site
                  {
                    OFFSET -2.33842 -0.294052 0.168128
                  }
                }
              }
              JOINT rPinky1
              {
                OFFSET -8.27202 -0.0477905 -0.4584
                CHANNELS 3 Zrotation Xrotation Yrotation
                JOINT rPinky2
                {
                  OFFSET -1.82734 -0.647385 -0.700984
                  CHANNELS 3 Zrotation Xrotation Yrotation
                  End Site
                  {
                    OFFSET -1.69225 -0.51767 -0.607171
                  }
                }
              }
            }
          }
        }
      }
      JOINT lCollar
      {
        OFFSET 2.68224 19.2634 -4.8768
        CHANNELS 3 Zrotation Xrotation Yrotation
        JOINT lShldr
        {
          OFFSET 8.77824 -1.95073 1.46304
          CHANNELS 3 Zrotation Xrotation Yrotation
          JOINT lForeArm
          {
            OFFSET 28.1742 -1.7115 0.48768
            CHANNELS 3 Zrotation Xrotation Yrotation
            JOINT lHand
            {
              OFFSET 22.5879 0.773209 7.07136
              CHANNELS 3 Zrotation Xrotation Yrotation
              JOINT lThumb1
              {
                OFFSET 1.2192 -0.487915 3.41376
                CHANNELS 3 Zrotation Xrotation Yrotation
                JOINT lThumb2
                {
                  OFFSET 3.37035 -0.52449 3.41376
                  CHANNELS 3 Zrotation Xrotation Yrotation
                  End Site
                  {
                    OFFSET 1.78271 -1.18214 1.43049
                  }
                }
              }
              JOINT lIndex1
              {
                OFFSET 7.75947 0.938293 5.60832
                CHANNELS 3 Zrotation Xrotation Yrotation
                JOINT lIndex2
                {
                  OFFSET 2.54057 -0.884171 1.56538
                  CHANNELS 3 Zrotation Xrotation Yrotation
                  End Site
                  {
                    OFFSET 1.62519 -0.234802 1.16502
                  }
                }
              }
              JOINT lMid1
              {
                OFFSET 8.24714 1.18213 3.41376
                CHANNELS 3 Zrotation Xrotation Yrotation
                JOINT lMid2
                {
                  OFFSET 3.10165 -0.590103 1.0647
                  CHANNELS 3 Zrotation Xrotation Yrotation
                  End Site
                  {
                    OFFSET 2.48547 -0.328903 0.83742
                  }
                }
              }
              JOINT lRing1
              {
                OFFSET 8.82822 0.546677 1.51678
                CHANNELS 3 Zrotation Xrotation Yrotation
                JOINT lRing2
                {
                  OFFSET 2.60934 -0.819778 -0.0198488
                  CHANNELS 3 Zrotation Xrotation Yrotation
                  End Site
                  {
                    OFFSET 2.33842 -0.294052 0.168128
                  }
                }
              }
              JOINT lPinky1
              {
                OFFSET 8.27202 -0.0477905 -0.4584
                CHANNELS 3 Zrotation Xrotation Yrotation
                JOINT lPinky2
                {
                  OFFSET 1.82734 -0.647385 -0.700984
                  CHANNELS 3 Zrotation Xrotation Yrotation
                  End Site
                  {
                    OFFSET 1.69225 -0.51767 -0.607171
                  }
                }
              }
            }
          }
        }
      }
    }
  }
  JOINT rButtock
  {
    OFFSET -8.77824 4.35084 1.2192
    CHANNELS 3 Zrotation Xrotation Yrotation
    JOINT rThigh
    {
      OFFSET 0 -1.70687 -2.19456
      CHANNELS 3 Zrotation Xrotation Yrotation
      JOINT rShin
      {
        OFFSET 0 -36.8199 0.73152
        CHANNELS 3 Zrotation Xrotation Yrotation
        JOINT rFoot
        {
          OFFSET 0.73152 -45.1104 -5.12064
          CHANNELS 3 Zrotation Xrotation Yrotation
          End Site
          {
            OFFSET -1.1221 -3.69964 12.103
          }
        }
      }
    }
  }
  JOINT lButtock
  {
    OFFSET 8.77824 4.35084 1.2192
    CHANNELS 3 Zrotation Xrotation Yrotation
    JOINT lThigh
    {
      OFFSET 0 -1.70687 -2.19456
      CHANNELS 3 Zrotation Xrotation Yrotation
      JOINT lShin
      {
        OFFSET 0 -36.8199 0.73152
        CHANNELS 3 Zrotation Xrotation Yrotation
        JOINT lFoot
        {
          OFFSET -0.73152 -45.1104 -5.12064
          CHANNELS 3 Zrotation Xrotation Yrotation
          End Site
          {
            OFFSET 1.1221 -3.69964 12.103
          }
        }
      }
    }
  }
}
MOTION
Frames:	6
Frame Time:	0.03333
32.269 71.3431 -16.7302 7.697372 46.758788 14.237272 -5.791643 35.068301 -148.142004 114.211467 53.672385 97.137752 171.215675 -8.742298 -50.504061 -96.395418 -36.55217 -71.271493 -120.665537 0.280453 0.492338 33.653318 14.056997 44.358384 -79.596289 -41.41928 -104.646873 4.534904 45.15494 -71.02591 -22.839018 -47.740059 -178.053416 130.742911 -22.91126 128.714 -3.011623 -5.605476 -24.710187 82.362453 -0.413022 -39.893918 -7.653901 -67.177152 -132.327573 -36.725235 -81.506964 -91.827213 88.62291 51.911679 18.444215 140.543215 31.486076 -152.582852 -43.970817 -3.366404 -165.353568 6.537718 0.519874 -6.148834 77.284457 -34.314469 11.70659 -153.635491 74.890881 92.550269 -20.474499 28.561135 22.610136 105.629029 -8.662096 -172.838971 -43.506793 76.775113 141.781693 -36.963061 -56.938539 -42.583463 171.203702 6.848328 17.569688 -24.445439 -35.310325 -53.514221 58.968273 -11.787196 -62.050816 -168.922308 68.846905 -104.828087 76.108992 -28.121409 -103.482808 3.487035 -2.224716 48.525743 106.589795 47.23624 -110.997272 -69.840798 -9.487869 -163.873864 -83.723705 23.548896 -106.166214 179.842234 46.006932 20.686245 -42.655731 0.565756 -18.780451 92.259061 -13.651743 -85.138909 -76.48303 -32.287268 -154.232701 -116.273451 -5.921141 -114.62553 48.275794 7.134338 21.426826 -93.164855 -25.714564 -180.0 -69.577693 -52.504854 18.542913 -109.404828 56.136163 -77.826714
36.760999999999996 69.551 -18.9695 8.203115 51.598924 14.229811 -6.735377 38.895797 -169.348028 87.342879 76.328919 118.167209 170.350558 -3.488158 -53.899515 -125.23321 -37.264548 -91.48134 -112.916133 1.258999 1.899021 52.176436 17.947631 35.75053 45.190634 55.181459 -42.945303 -105.469976 -27.333271 136.346998 107.086602 -49.776255 -90.771823 145.335867 70.440636 -164.043641 -166.396733 -4.676607 110.243636 -110.188979 1.077717 -41.008771 -57.180886 2.25939 160.59653 132.955599 -69.26691 73.253738 6.908877 65.479603 99.371325 -155.694841 30.883442 -155.135349 110.626233 8.913491 -8.985303 9.511217 -12.311996 -2.652376 -48.673993 52.859296 174.510061 -32.040341 44.211415 -177.784929 138.345622 26.797152 -173.112042 -74.820782 -49.128634 -106.838724 -171.931034 -12.252302 -62.640497 -35.872947 -33.21149 -37.987713 -165.350234 -19.742803 28.483823 90.838544 -30.017654 -98.210419 -29.648393 -12.736708 -82.169987 74.551336 5.418697 -57.992887 2.045075 6.359299 -107.131923 93.181121 57.803076 -41.500246 25.829997 -20.273484 -42.90276 -61.370248 22.592944 -100.601099 92.871793 -62.19043 -113.828197 43.497982 -41.19995 -125.527534 82.357239 64.124896 52.768456 -102.730509 -7.966703 -45.462173 -58.612763 71.760465 6.615485 123.270508 -11.74116 63.990924 -155.14322 70.999214 -0.0 141.876607 2.626225 -87.552435 -78.559374 -31.011353 2.784417 131.780011 -57.488963 119.631285
41.769 65.72710000000001 -21.757199999999997 10.442813 60.92874 15.835487 -10.82305 52.60106 0.0 -51.709468 -87.588747 -29.456475 167.08384 6.616557 -114.262951 178.962059 -49.929669 171.53032 -95.229976 10.412164 11.402485 52.362792 21.738805 42.666048 -137.338576 -2.115738 -162.082844 -137.863689 83.925002 75.895853 48.406359 -82.345954 -117.3072 152.251538 7.557739 154.996519 51.807613 -52.768237 -6.962428 -11.73695 6.255305 -74.036895 105.491855 36.32382 -44.411599 -168.732755 -24.94795 130.506935 78.13847 75.406869 18.677365 13.679642 -2.67173 -63.075962 -41.884026 23.346226 -169.301511 18.35485 25.903285 -8.632389 -19.51177 -60.872782 -94.218135 124.31082 -9.710916 -171.282596 -22.80608 -28.307256 14.949135 -54.899989 2.565609 27.545401 74.682724 1.87571 -164.888382 -15.268322 -7.781551 -4.844572 2.922362 68.861628 -108.83559 156.670549 19.530088 -94.764063 34.325583 -22.439957 -133.776764 28.575468 52.898135 -6.736893 -138.034907 63.045766 13.222755 9.299769 -66.516756 -33.096152 -33.835972 2.465433 -26.276292 -102.597252 27.824695 -24.638403 -115.162696 43.912969 -55.52291 -40.200455 -56.406609 141.813962 50.086883 32.323033 44.385229 -64.18601 -36.52941 -121.161222 -98.287415 -0.075067 -84.357306 141.576087 64.017856 13.14635 -146.233831 69.764966 0.0 138.215465 -6.516694 97.238023 75.418647 35.102192 -172.836157 130.668557 64.997595 40.58207
47.1526 66.2565 -24.512 17.972177 74.653381 21.461462 -19.310538 55.882233 -123.684704 84.552221 42.049122 108.610494 -176.709136 -1.025497 135.282784 150.838031 -11.3323 43.793315 -56.209622 -16.324887 30.066595 -56.805703 -15.883133 28.930539 -70.021849 -49.250405 -108.621009 -70.886166 -31.848799 -71.385138 1.4852 12.006349 -167.705133 151.156571 4.962006 151.309794 38.333709 5.986782 -14.493453 -104.431685 -12.876802 154.896137 102.323423 58.463325 -40.568073 -141.777034 -12.843065 125.325543 -13.344608 -57.252706 -146.053045 31.066013 0.524322 64.524949 3.450368 -50.962638 -112.743714 -56.503164 -85.636344 -80.528005 -49.805678 -35.171444 -129.457454 -21.779788 -74.354446 31.099555 118.266386 -0.950463 -169.278618 37.970474 -6.003585 -14.790979 5.70602 62.381765 124.853714 -131.933614 -25.695996 -119.91018 -9.25154 -88.353551 158.975263 -30.019377 -47.293695 4.684322 26.661347 -67.505955 -174.282164 -16.479993 -8.639748 -6.395579 -129.481727 66.454908 16.841698 46.712338 12.4919 42.937078 -23.951908 11.038914 8.117999 -149.376734 -71.603841 -33.713199 -120.491902 -12.792387 -35.748234 125.510656 -28.575403 -59.76338 -168.510674 70.387939 -12.176379 -151.687847 28.184887 -48.757507 -100.466467 56.995949 178.699211 -133.198541 -37.03447 -131.132362 -18.368944 28.438544 -36.40391 72.561811 -71.130578 -0.0 -82.280577 24.506446 -83.547819 121.056366 -2.459321 106.817172
51.9469 68.9626 -26.946900000000003 102.453609 87.182248 104.079463 -27.281661 62.448426 -73.345421 101.605019 10.760608 96.669172 162.078524 -19.903865 -67.968204 -149.557171 -3.163789 -151.19135 -44.474591 -2.397404 5.859489 -74.419793 -12.239312 16.074225 136.751421 65.611927 -123.309927 -111.100615 12.947597 118.134524 -167.214375 46.504817 -56.27785 31.757688 7.912461 3.562501 -177.717065 -65.524657 57.642427 -92.920372 3.903498 18.813405 75.562277 0.417803 -37.770466 171.289255 -57.618219 107.306535 -30.641099 -57.901983 -149.767145 13.457947 4.095177 47.315023 -61.072521 -2.659239 -170.973178 10.962303 0.567071 4.825148 75.606928 -46.087232 4.551445 -125.063931 -39.265445 -81.179925 -59.030301 20.707461 22.46494 -49.82888 4.827689 -10.259705 161.733195 -67.197543 -47.279205 -132.495968 -0.55566 -119.283792 -107.797118 -65.206749 35.397717 120.226654 -2.167809 -96.827195 50.986554 19.482557 -144.955309 176.755295 -62.699004 -103.844638 -109.204 55.362914 21.806533 12.407968 51.980495 21.194136 101.496308 -26.84466 124.003659 -121.171522 14.948186 103.500509 -87.697092 -51.465635 -35.862905 171.382089 23.184879 -166.49393 -160.071953 70.814575 -12.43941 -157.736496 38.695583 -118.053698 -102.455113 -16.569749 102.863604 150.579746 13.776084 88.05264 96.057546 16.287719 27.027636 -150.113683 -29.085028 180.0 -75.526253 -60.901137 16.664319 -163.656966 85.527521 -71.048034
55.13590000000001 70.8791 -29.3379 -179.772624 75.742145 -179.072268 -29.342308 66.782842 26.851798 -178.753589 13.472347 -132.653561 -80.906842 -50.46996 14.531794 -149.132816 1.093366 -160.780498 -62.783714 11.468219 -18.689464 -84.434277 -16.309322 17.949967 153.598871 -1.605793 -135.062477 45.103546 26.141677 28.325652 -25.848548 -75.480656 63.999939 49.565548 54.226203 -25.396097 -63.360695 22.111781 75.358735 -50.86611 37.490563 43.058793 -21.553584 41.477156 58.658958 -172.259923 6.052099 92.254166 -91.411303 12.737813 124.145795 0.777035 40.665808 43.89493 -74.542519 14.050442 139.586341 -144.711749 -26.200033 179.191081 -21.945667 12.31089 163.172914 -114.448445 56.826247 -118.502084 67.580765 -46.611981 54.938548 50.754641 -58.021742 26.433469 135.785165 1.466597 -1.110101 -126.829457 -11.177316 -78.50005 21.258786 69.363236 -55.89625 -10.4012 -37.932814 -10.88487 -94.979499 47.139106 43.588884 -9.607655 -52.508931 2.226467 -100.243918 42.968304 44.769603 164.404848 6.488261 -131.354372 3.581652 7.917559 40.429754 -54.516087 15.696507 -30.583576 61.952347 61.98742 -117.140775 112.710919 44.773123 173.785835 -0.559221 5.645064 0.770567 32.599126 -27.70715 -84.596206 -119.682751 0.394196 -132.005436 64.977984 20.935598 150.432598 71.457764 5.72412 13.502436 -144.276199 -40.888782 -132.30734 -90.941828 31.23254 171.153458 -87.814257 41.128862 -28.266922
